<svg xmlns="http://www.w3.org/2000/svg" viewBox="0 0 64 64" role="img" aria-label="Boris showcase mark">
  <defs>
    <linearGradient id="g" x1="0" y1="0" x2="1" y2="1">
      <stop offset="0%" stop-color="#6419e6"/>
      <stop offset="100%" stop-color="#d926a9"/>
    </linearGradient>
  </defs>
  <rect width="64" height="64" rx="16" fill="url(#g)"/>
  <path fill="#f8f7ff" d="M18 44V20h12.4c6.4 0 10.3 3.2 10.3 8.1 0 3.1-1.6 5.6-4.3 6.9 3.4 1.1 5.5 4 5.5 7.6 0 5.3-4.1 8.4-11.1 8.4H18zm7.2-14.7h5c2.9 0 4.5-1.3 4.5-3.5s-1.6-3.4-4.5-3.4h-5v6.9zm0 5.2v7.5h5.8c3.2 0 5-1.4 5-3.8s-1.8-3.7-5.1-3.7h-5.7z"/>
</svg>
